<svg width="85" height="30" viewBox="0 0 85 30" fill="none" xmlns="http://www.w3.org/2000/svg">
<path d="M2.0921 29.656C1.75076 29.656 1.4758 29.5517 1.26721 29.3431C1.07758 29.1535 0.982764 28.888 0.982764 28.5467V15.1209C1.00173 13.6418 1.35254 12.3144 2.03521 11.1387C2.73684 9.944 3.67551 9.00533 4.85121 8.32266C6.04588 7.64 7.38276 7.29866 8.86188 7.29866C10.3789 7.29866 11.7348 7.64948 12.9294 8.35111C14.1241 9.03378 15.0628 9.97244 15.7454 11.1671C16.4471 12.3618 16.7979 13.7176 16.7979 15.2347C16.7979 16.7327 16.4565 18.0791 15.7739 19.2738C15.1102 20.4684 14.2 21.4166 13.0432 22.1182C11.8865 22.8009 10.578 23.1422 9.11788 23.1422C7.84736 23.1422 6.69062 22.8767 5.64765 22.3458C4.62365 21.7959 3.79876 21.0753 3.17299 20.184V28.5467C3.17299 28.888 3.06869 29.1535 2.8601 29.3431C2.67047 29.5517 2.41447 29.656 2.0921 29.656ZM8.86188 21.1511C9.96173 21.1511 10.9478 20.8951 11.8201 20.3831C12.6924 19.8711 13.3751 19.1695 13.8681 18.2782C14.3801 17.368 14.6361 16.3535 14.6361 15.2347C14.6361 14.0969 14.3801 13.0824 13.8681 12.1911C13.3751 11.2999 12.6924 10.5982 11.8201 10.0862C10.9478 9.55526 9.96173 9.28978 8.86188 9.28978C7.78099 9.28978 6.80439 9.55526 5.9321 10.0862C5.0598 10.5982 4.37713 11.2999 3.8841 12.1911C3.39106 13.0824 3.14454 14.0969 3.14454 15.2347C3.14454 16.3535 3.39106 17.368 3.8841 18.2782C4.37713 19.1695 5.0598 19.8711 5.9321 20.3831C6.80439 20.8951 7.78099 21.1511 8.86188 21.1511ZM21.7765 23C21.4352 23 21.1602 22.9052 20.9517 22.7156C20.762 22.507 20.6672 22.2415 20.6672 21.9191V8.55022C20.6672 8.20889 20.762 7.94341 20.9517 7.75378C21.1602 7.54518 21.4352 7.44089 21.7765 7.44089C22.0989 7.44089 22.3549 7.54518 22.5445 7.75378C22.7531 7.94341 22.8574 8.20889 22.8574 8.55022V9.51733C23.4642 8.8157 24.2133 8.26578 25.1045 7.86755C26.0148 7.46933 26.9914 7.27022 28.0343 7.27022C29.3807 7.27022 30.5848 7.55466 31.6468 8.12355C32.7087 8.67348 33.5431 9.48889 34.1499 10.5698C34.7757 11.6507 35.0885 12.9686 35.0885 14.5236V21.9191C35.0885 22.2225 34.9842 22.4785 34.7757 22.6871C34.5671 22.8957 34.3111 23 34.0077 23C33.6853 23 33.4198 22.8957 33.2112 22.6871C33.0026 22.4785 32.8983 22.2225 32.8983 21.9191V14.5236C32.8983 12.76 32.4053 11.461 31.4192 10.6267C30.4521 9.77333 29.248 9.34667 27.8068 9.34667C26.8776 9.34667 26.0337 9.52681 25.2752 9.88711C24.5357 10.2474 23.9478 10.7404 23.5117 11.3662C23.0755 11.992 22.8574 12.7031 22.8574 13.4996V21.9191C22.8574 22.2415 22.7531 22.507 22.5445 22.7156C22.3549 22.9052 22.0989 23 21.7765 23ZM21.7765 16.6569C21.4352 16.6569 21.1602 16.5526 20.9517 16.344C20.762 16.1354 20.6672 15.8699 20.6672 15.5476V1.89422C20.6672 1.55289 20.762 1.2874 20.9517 1.09777C21.1602 0.889183 21.4352 0.784887 21.7765 0.784887C22.0989 0.784887 22.3549 0.889183 22.5445 1.09777C22.7531 1.2874 22.8574 1.55289 22.8574 1.89422V15.5476C22.8574 15.8699 22.7531 16.1354 22.5445 16.344C22.3549 16.5526 22.0989 16.6569 21.7765 16.6569ZM46.5732 23.1422C45.0562 23.1422 43.7003 22.8009 42.5057 22.1182C41.311 21.4356 40.3723 20.4969 39.6897 19.3022C39.007 18.1076 38.6657 16.7517 38.6657 15.2347C38.6657 13.6987 39.007 12.3333 39.6897 11.1387C40.3723 9.944 41.311 9.00533 42.5057 8.32266C43.7003 7.64 45.0562 7.29866 46.5732 7.29866C48.0903 7.29866 49.4366 7.64 50.6123 8.32266C51.807 9.00533 52.7457 9.944 53.4283 11.1387C54.111 12.3333 54.4618 13.6987 54.4808 15.2347C54.4808 16.7517 54.13 18.1076 53.4283 19.3022C52.7457 20.4969 51.807 21.4356 50.6123 22.1182C49.4366 22.8009 48.0903 23.1422 46.5732 23.1422ZM46.5732 21.1511C47.6731 21.1511 48.6591 20.8951 49.5314 20.3831C50.4037 19.8711 51.0864 19.1695 51.5794 18.2782C52.0725 17.387 52.319 16.3724 52.319 15.2347C52.319 14.0969 52.0725 13.0824 51.5794 12.1911C51.0864 11.2809 50.4037 10.5698 49.5314 10.0578C48.6591 9.54578 47.6731 9.28978 46.5732 9.28978C45.4734 9.28978 44.4873 9.54578 43.615 10.0578C42.7427 10.5698 42.0505 11.2809 41.5385 12.1911C41.0455 13.0824 40.799 14.0969 40.799 15.2347C40.799 16.3724 41.0455 17.387 41.5385 18.2782C42.0505 19.1695 42.7427 19.8711 43.615 20.3831C44.4873 20.8951 45.4734 21.1511 46.5732 21.1511ZM64.401 23C63.396 23 62.4952 22.763 61.6988 22.2889C60.9213 21.8148 60.305 21.1701 59.8499 20.3547C59.3948 19.5203 59.1672 18.5721 59.1672 17.5102V9.91555H57.3183C57.0339 9.91555 56.7968 9.83022 56.6072 9.65955C56.4176 9.46992 56.3228 9.24237 56.3228 8.97689C56.3228 8.69244 56.4176 8.46489 56.6072 8.29422C56.7968 8.10459 57.0339 8.00978 57.3183 8.00978H59.1672V3.60089C59.1672 3.27852 59.262 3.01303 59.4517 2.80444C59.6603 2.59585 59.9257 2.49155 60.2481 2.49155C60.5705 2.49155 60.836 2.59585 61.0445 2.80444C61.2531 3.01303 61.3574 3.27852 61.3574 3.60089V8.00978H64.5717C64.8561 8.00978 65.0931 8.10459 65.2828 8.29422C65.4724 8.46489 65.5672 8.69244 65.5672 8.97689C65.5672 9.24237 65.4724 9.46992 65.2828 9.65955C65.0931 9.83022 64.8561 9.91555 64.5717 9.91555H61.3574V17.5102C61.3574 18.4773 61.6419 19.2738 62.2108 19.8996C62.7797 20.5064 63.5097 20.8098 64.401 20.8098H65.169C65.4724 20.8098 65.7189 20.9141 65.9085 21.1227C66.0982 21.3313 66.193 21.5967 66.193 21.9191C66.193 22.2415 66.0792 22.507 65.8517 22.7156C65.6241 22.9052 65.3397 23 64.9983 23H64.401ZM76.4143 23.1422C74.8973 23.1422 73.5414 22.8009 72.3468 22.1182C71.1521 21.4356 70.2134 20.4969 69.5308 19.3022C68.8481 18.1076 68.5068 16.7517 68.5068 15.2347C68.5068 13.6987 68.8481 12.3333 69.5308 11.1387C70.2134 9.944 71.1521 9.00533 72.3468 8.32266C73.5414 7.64 74.8973 7.29866 76.4143 7.29866C77.9314 7.29866 79.2777 7.64 80.4534 8.32266C81.6481 9.00533 82.5868 9.944 83.2694 11.1387C83.9521 12.3333 84.3029 13.6987 84.3219 15.2347C84.3219 16.7517 83.9711 18.1076 83.2694 19.3022C82.5868 20.4969 81.6481 21.4356 80.4534 22.1182C79.2777 22.8009 77.9314 23.1422 76.4143 23.1422ZM76.4143 21.1511C77.5142 21.1511 78.5002 20.8951 79.3725 20.3831C80.2448 19.8711 80.9275 19.1695 81.4205 18.2782C81.9136 17.387 82.1601 16.3724 82.1601 15.2347C82.1601 14.0969 81.9136 13.0824 81.4205 12.1911C80.9275 11.2809 80.2448 10.5698 79.3725 10.0578C78.5002 9.54578 77.5142 9.28978 76.4143 9.28978C75.3145 9.28978 74.3284 9.54578 73.4561 10.0578C72.5838 10.5698 71.8917 11.2809 71.3797 12.1911C70.8866 13.0824 70.6401 14.0969 70.6401 15.2347C70.6401 16.3724 70.8866 17.387 71.3797 18.2782C71.8917 19.1695 72.5838 19.8711 73.4561 20.3831C74.3284 20.8951 75.3145 21.1511 76.4143 21.1511Z" fill="black"/>
</svg>
